<svg version="1.1" id="head" xmlns="http://www.w3.org/2000/svg" xmlns:xlink="http://www.w3.org/1999/xlink" x="0px" y="0px"
	 viewBox="300 389 12.5 13.5" style="enable-background:new 0 0 612 792;" preserveAspectRatio="none" width="612" height="792">
<style type="text/css">
	.st0{fill:#7B7B7B;}
	.st1{fill:#E1E1E1;}
	.st2{fill:#C5C5C5;}
</style>
<g>
	<path class="st0" d="M306.4,389.4c2.3,0,4,1.5,4.9,3.9c0.1,0.4,0.3,0.8,0.4,1.2c0.2,0.6,0.4,1.2,0.3,1.9c-0.1,0.6-0.3,1.3-0.7,1.8
		c-0.1,0.1-0.2,0.3-0.4,0.3c-0.2,0.1-0.4,0.1-0.6,0.1c-0.6-0.1-1.2-0.4-1.7-0.6c-0.3-0.1-0.6-0.2-0.9-0.2c-0.3,0-0.6,0.1-0.9,0.1
		c-0.7,0.1-1.3,0-2,0c-0.5,0-0.9-0.1-1.3-0.2c-0.4-0.2-0.8-0.4-1.2-0.5c-0.2,0,0.2,2.2,0,2.2c-0.2,0-1-1.2-1.1-1.4
		c-0.1-0.1-0.4-0.8-0.4-0.9c-0.4-1.3,0.3-3.5,0.9-4.7c0.5-1,1.3-1.9,2.2-2.4C304.9,389.6,305.7,389.4,306.4,389.4z"/>
	<ellipse class="st1" cx="306.5" cy="396.4" rx="4.9" ry="6.4"/>
	<path class="st2" d="M306.5,402.9c2.7,0,4.9-2.9,4.9-6.4s-2.2-6.4-4.9-6.4"/>
	<path class="st0" d="M311.4,393.8c0,0.1,0.1,0.2,0.1,0.4c0,0.1,0.1,0.3,0,0.4c0,0,0.1,0.9,0.1,0.9c-0.5-0.3-3.2-2.7-3.2-2.7
		l-0.4-2.1c-0.1,0-0.6,2.2-0.6,2.2c-0.4,0.2-5.1,2.6-5.5,2.9c-0.1,0.1-0.5,0.3-0.6,0.2c-0.1-0.1,0.7-3,0.9-3.3
		c0.3-0.6,0.9-1.3,1.4-1.7c0.8-0.9,2.2-1.2,3.3-1.2c0.9,0,3.3,1.7,3.7,2.2C310.6,392.3,311.3,393.6,311.4,393.8z"/>
</g>
</svg>
